<?xml version="1.0" standalone="no"?>
<!DOCTYPE svg PUBLIC "-//W3C//DTD SVG 20010904//EN"
 "http://www.w3.org/TR/2001/REC-SVG-20010904/DTD/svg10.dtd">
<svg version="1.0" xmlns="http://www.w3.org/2000/svg"
 width="626.000000pt" height="626.000000pt" viewBox="0 0 626.000000 626.000000"
 preserveAspectRatio="xMidYMid meet">
<metadata>
Created by potrace 1.16, written by Peter Selinger 2001-2019
</metadata>
<g transform="translate(0.000000,626.000000) scale(0.100000,-0.100000)"
fill="#000000" stroke="none">
<path d="M0 3130 l0 -3130 3130 0 3130 0 0 3130 0 3130 -3130 0 -3130 0 0
-3130z m3269 2040 c80 -23 105 -88 51 -133 -54 -45 -163 -44 -211 4 -25 25
-24 39 1 32 13 -4 20 0 20 9 0 22 -12 29 -27 17 -10 -9 -13 -8 -13 3 0 25 24
48 65 63 48 17 70 18 114 5z m426 -127 l40 -9 48 -119 c26 -66 47 -124 47
-129 0 -8 -137 -158 -150 -164 -4 -1 -67 63 -140 143 l-133 146 57 83 57 83
67 -13 c37 -7 85 -17 107 -21z m-467 -119 c113 -47 183 -200 116 -253 -34 -26
-47 -26 -95 1 l-39 22 -38 -37 c-21 -20 -42 -37 -47 -37 -14 0 -75 62 -75 76
0 7 19 28 41 48 l42 35 -17 35 c-22 47 -20 73 9 101 28 29 51 31 103 9z m-127
-450 c12 -15 14 -75 4 -136 -7 -38 -6 -39 19 -32 17 4 35 0 51 -10 21 -14 25
-24 25 -64 0 -42 -6 -55 -48 -107 -26 -33 -63 -70 -81 -82 -66 -45 -165 -22
-197 45 -15 32 -16 44 -5 96 13 60 51 148 77 173 20 20 81 28 99 13 8 -7 15
-21 15 -31 0 -11 4 -19 10 -19 12 0 22 56 18 105 -3 38 -5 40 -37 40 -39 0
-54 22 -19 27 31 5 55 -1 69 -18z m364 6 c38 -20 38 -20 52 0 8 11 21 20 29
20 13 0 13 -3 0 -22 -21 -30 -20 -33 9 -46 39 -18 65 -69 65 -127 0 -124 -141
-187 -235 -104 -46 41 -61 89 -45 143 14 48 41 80 81 96 36 15 37 25 2 44 -42
23 -3 19 42 -4z m-289 -520 c-45 -50 -48 -80 -8 -80 35 0 51 -17 90 -95 51
-102 76 -200 76 -290 -1 -93 -19 -150 -68 -209 -33 -41 -100 -86 -111 -75 -3
4 9 37 27 75 29 60 33 79 33 150 0 77 -2 84 -56 195 -76 155 -84 181 -66 216
8 16 23 47 33 71 10 24 29 52 42 63 42 32 46 21 8 -21z m293 11 c73 -37 118
-132 101 -216 l-6 -30 -8 35 c-11 44 -40 102 -61 120 -10 8 -7 -4 10 -36 14
-27 28 -66 31 -86 6 -34 4 -38 -20 -44 -34 -8 -81 11 -101 42 -23 36 -37 121
-29 187 7 64 9 65 83 28z m-511 -325 c36 -19 78 -65 91 -99 13 -34 15 -127 2
-127 -5 0 -11 14 -15 32 -7 33 -55 123 -62 115 -3 -2 7 -26 21 -53 14 -27 28
-66 32 -87 l6 -37 -45 0 c-53 0 -90 33 -107 95 -12 43 -14 136 -5 172 6 23 19
22 82 -11z m-1633 -389 c50 -14 146 -52 215 -85 173 -82 248 -111 371 -141
l105 -25 17 -76 c9 -41 17 -80 17 -86 0 -21 -408 110 -585 188 -49 22 -128 54
-175 72 l-85 31 -209 0 -208 0 -33 40 c-18 22 -36 50 -39 62 -6 19 -2 22 46
32 90 18 118 19 298 16 150 -3 188 -7 265 -28z m2810 -259 c-19 -134 -68 -253
-141 -336 -77 -88 -19 -82 -819 -82 -797 0 -742 -5 -816 79 -23 25 -54 71 -70
102 -33 66 -69 196 -69 251 l0 38 961 0 961 0 -7 -52z m-1925 -94 c17 -53 29
-99 26 -101 -2 -2 -36 -1 -74 3 l-71 6 -10 47 c-5 25 -12 67 -16 94 l-7 47 60
0 61 0 31 -96z m960 -2603 c20 -18 39 -27 55 -26 19 3 24 -1 22 -16 -2 -10 -6
-22 -10 -25 -4 -4 -7 -19 -7 -34 0 -36 -29 -60 -79 -67 -46 -6 -91 16 -91 45
0 10 -7 28 -16 40 -8 12 -12 22 -8 22 3 0 1 7 -7 16 -11 13 -11 15 2 13 27 -6
66 11 85 36 10 14 20 25 21 25 2 0 17 -13 33 -29z"/>
<path d="M3669 4943 c68 -65 128 -119 132 -121 5 -2 -11 43 -34 100 l-42 103
-60 12 c-33 6 -73 14 -90 17 -25 5 -11 -12 94 -111z"/>
</g>
</svg>
